<?xml version="1.0" encoding="utf-8"?>
<!-- Generator: Adobe Illustrator 16.0.0, SVG Export Plug-In . SVG Version: 6.00 Build 0)  -->
<!DOCTYPE svg PUBLIC "-//W3C//DTD SVG 1.1//EN" "http://www.w3.org/Graphics/SVG/1.1/DTD/svg11.dtd">
<svg version="1.1" id="Layer_1" xmlns="http://www.w3.org/2000/svg" xmlns:xlink="http://www.w3.org/1999/xlink" x="0px" y="0px"
	 width="144px" height="144px" viewBox="0 0 144 144" enable-background="new 0 0 144 144" xml:space="preserve">
<rect x="52.241" y="11.746" fill="#3290BA" width="38.195" height="38.195"/>
<path fill="#046789" d="M10.99,30.735v19.091h38.196V31.194V11.631H30.197C30.197,11.631,10.99,11.14,10.99,30.735z"/>
<rect x="52.241" y="52.996" fill="#F1F1F1" width="38.195" height="38.194"/>
<rect x="93.493" y="52.996" fill="#F1F1F1" width="38.194" height="38.194"/>
<rect x="52.241" y="93.903" fill="#3290BA" width="38.195" height="38.195"/>
<rect x="11.451" y="52.996" fill="#046789" width="38.196" height="38.196"/>
<path fill="#046789" d="M49.631,93.919H11.447l-0.004-0.004v0.004h-0.007l0.007,0.008l0.048,19.412c0,0,0.208,18.562,19.229,18.562
	l18.87,0.172l0.04,0.041V93.919z"/>
<path fill="#3DB8FC" d="M115.441,131.76c3.147-2.321,6.093-7.295,2.31-17.849c0,0,11.478,3.823,13.937-3.24V93.79H93.493v18.631
	v19.562h18.986C112.479,131.983,113.663,132.013,115.441,131.76z"/>
<polygon fill="#3DB8FC" points="118.094,132.132 131.157,117.808 131.157,132.132 "/>
<path fill="#3DB8FC" d="M131.731,11.631h-1.49h-0.803h-16.856H93.491v38.194h18.632h19.563c0,0,0-0.041,0.001-0.087l0.044,0.087
	V11.631z"/>
</svg>
