<?xml version="1.0" encoding="utf-8"?>
<!-- Generator: Adobe Illustrator 16.0.0, SVG Export Plug-In . SVG Version: 6.00 Build 0)  -->
<!DOCTYPE svg PUBLIC "-//W3C//DTD SVG 1.1//EN" "http://www.w3.org/Graphics/SVG/1.1/DTD/svg11.dtd">
<svg version="1.1" id="Layer_1" xmlns="http://www.w3.org/2000/svg" xmlns:xlink="http://www.w3.org/1999/xlink" x="0px" y="0px"
	 width="247px" height="244.667px" viewBox="0 0 247 244.667" enable-background="new 0 0 247 244.667" xml:space="preserve">
<path fill="#FFFFFF" d="M86.943,58.036c0,7.697-5.777,13.972-12.787,13.972h-3.533c-7.028,0-12.787-6.274-12.787-13.972v-38.36
	c0-7.706,5.759-14.009,12.787-14.009h3.533c7.01,0,12.787,6.303,12.787,14.009V58.036z"/>
<rect x="91.651" y="30.924" fill="#FFFFFF" width="63.019" height="6.026"/>
<path fill="#FFFFFF" d="M188.485,58.036c0,7.697-5.749,13.972-12.807,13.972h-3.504c-7.029,0-12.797-6.274-12.797-13.972v-38.36
	c0-7.706,5.768-14.009,12.797-14.009h3.504c7.058,0,12.807,6.303,12.807,14.009V58.036z"/>
<path fill="#FFFFFF" d="M222.692,30.667H193v6h27.037c11.307,0,20.963,10.436,20.963,22.803v28.197H6V59.469
	c0-12.367,9.693-22.803,20.962-22.803H53v-6H24.308C11.015,30.667,0,42.756,0,57.311v160.758c0,14.555,11.015,26.598,24.308,26.598
	h198.385c13.293,0,24.308-12.043,24.308-26.598V57.311C247,42.756,235.985,30.667,222.692,30.667z M174,178.667h-38v38h-25v-38H73
	v-25h38v-38h25v38h38V178.667z"/>
<rect x="6.44" y="92.09" fill="#FFFFFF" width="234.129" height="3.514"/>
</svg>
